<!DOCTYPE svg PUBLIC "-//W3C//DTD SVG 1.1//EN" "http://www.w3.org/Graphics/SVG/1.1/DTD/svg11.dtd">
<!-- Uploaded to: SVG Repo, www.svgrepo.com, Transformed by: SVG Repo Mixer Tools -->
<svg fill="#4b4b4b" height="80px" width="80px" version="1.1" id="Layer_1" xmlns="http://www.w3.org/2000/svg" xmlns:xlink="http://www.w3.org/1999/xlink" viewBox="0 0 511.999 511.999" xml:space="preserve" stroke="#4b4b4b" stroke-width="2.0479960000000004">
<g id="SVGRepo_bgCarrier" stroke-width="0"/>
<g id="SVGRepo_tracerCarrier" stroke-linecap="round" stroke-linejoin="round"/>
<g id="SVGRepo_iconCarrier"> <g> <g> <path d="M327.93,115.447H217.823c-4.414,0-7.991,3.578-7.991,7.991c0,4.413,3.577,7.991,7.991,7.991H327.93 c7.396,0,13.414,6.018,13.414,13.414v222.314c0,7.396-6.016,13.414-13.414,13.414H160.841c-7.396,0-13.414-6.018-13.414-13.414 V144.843c0-7.396,6.016-13.414,13.414-13.414h25.019c4.414,0,7.991-3.578,7.991-7.991c0-4.413-3.577-7.991-7.991-7.991h-25.019 c-16.208,0-29.395,13.187-29.395,29.395v222.314c0,16.208,13.187,29.395,29.395,29.395H327.93 c16.208,0,29.395-13.187,29.395-29.395V144.843C357.325,128.634,344.138,115.447,327.93,115.447z"/> </g> </g> <g> <g> <path d="M281.295,201.116c-11.816,1.108-24.214,6.235-36.917,15.256c-21.983-15.529-43.806-19.602-60.539-11.107 c-36.021,18.288-22.586,67.38-2.681,92.082c14.15,17.56,34.372,32.011,60.1,42.951c1.963,0.834,4.265,0.846,6.253,0 c15.76-6.702,29.644-14.862,41.268-24.257c7.934-6.413-1.965-18.957-10.045-12.429c-9.707,7.845-21.251,14.772-34.351,20.617 c-48.279-21.527-66.405-53.393-67.184-76.362c-0.444-13.118,4.741-23.716,13.873-28.352c12.215-6.202,29.849-1.421,48.381,13.113 c2.895,2.27,6.966,2.27,9.863,0c21.464-16.834,42.024-20.431,53.652-9.386c11.182,10.618,13.315,34.414-4.243,59.352 c-5.95,8.453,7.134,17.626,13.067,9.201c10.069-14.303,15.522-29.675,15.77-44.456 C328.003,221.055,309.009,198.518,281.295,201.116z"/> </g> </g> <g> <g> <path d="M266.202,157.503c-4.414,0-7.991,3.578-7.991,7.991v10.971c0,4.413,3.577,7.991,7.991,7.991s7.991-3.578,7.991-7.991 v-10.971C274.193,161.081,270.616,157.503,266.202,157.503z"/> </g> </g> <g> <g> <path d="M289.809,146.849c-4.414,0-7.991,3.578-7.991,7.991v21.625c0,4.413,3.577,7.991,7.991,7.991s7.991-3.578,7.991-7.991 v-21.625C297.799,150.426,294.223,146.849,289.809,146.849z"/> </g> </g> <g> <g> <path d="M313.413,146.849c-4.414,0-7.991,3.578-7.991,7.991v21.625c0,4.413,3.577,7.991,7.991,7.991s7.991-3.578,7.991-7.991 v-21.625C321.404,150.426,317.827,146.849,313.413,146.849z"/> </g> </g> <g> <g> <path d="M412.516,203.844v-28.535c0.001-13.905-10.027-25.505-23.228-27.969v-2.496c0-24.878-14.891-46.329-36.221-55.95 c-1.157-12.528-8.844-23.838-20.268-29.401c-10.076-4.907-13.091-18.281-17.022-27.849C307.88,12.42,289.349,0,268.569,0h-48.368 c-20.78,0-39.31,12.42-47.207,31.641c-3.811,9.277-6.754,23.448-17.023,27.849c-11.423,5.563-19.109,16.873-20.266,29.401 c-21.33,9.621-36.221,31.072-36.221,55.95v222.315c0,24.879,14.891,46.329,36.221,55.951c1.157,12.527,8.844,23.838,20.266,29.4 c10.035,4.887,13.119,18.346,17.023,27.85c7.896,19.221,26.427,31.641,47.207,31.641h48.368c20.78,0,39.31-12.42,47.207-31.641 c4.01-9.763,6.655-22.801,17.02-27.849c11.425-5.563,19.112-16.873,20.269-29.401c21.33-9.621,36.221-31.072,36.221-55.951v-43.74 c13.202-2.464,23.229-14.064,23.229-27.97v-28.535c0-13.906-10.028-25.506-23.229-27.971v-7.128 C402.488,229.349,412.516,217.748,412.516,203.844z M389.287,163.98c4.276,1.982,7.248,6.315,7.248,11.33v28.535 c0,5.014-2.973,9.347-7.248,11.329V163.98z M162.971,73.859c14.544-7.082,19.105-22.265,24.806-36.145 c5.424-13.202,18.151-21.733,32.424-21.733h48.368c14.272,0,27,8.531,32.424,21.734c5.783,14.076,10.087,28.976,24.807,36.145 c4.375,2.131,7.778,5.765,9.7,10.094c-0.157-0.019-0.314-0.026-0.471-0.044c-2.352-0.274-4.733-0.424-7.1-0.424H160.841 c-1.51,0-3.02,0.184-4.525,0.184c-1.015,0.075-2.036,0.157-3.047,0.283C155.192,79.625,158.594,75.99,162.971,73.859z M373.306,367.156c0,20.052-13.08,37.097-31.152,43.08c-4.573,1.511-9.408,2.296-14.225,2.296c0,0-28.375,0-28.486,0 c-10.31,0-10.33,15.981,0,15.981h28.486c2.527,0,5.063-0.154,7.571-0.468c-1.923,4.328-5.325,7.963-9.701,10.094 c-14.346,6.986-19.168,22.418-24.807,36.145c-5.424,13.203-18.151,21.733-32.424,21.733H220.2c-14.272,0-27-8.531-32.424-21.733 c-5.786-14.085-10.061-28.966-24.807-36.145c-4.376-2.131-7.779-5.765-9.7-10.094c0.157,0.019,0.314,0.026,0.471,0.044 c2.356,0.274,4.728,0.424,7.1,0.424c0,0,106.402,0,106.714,0c10.293,0,10.342-15.981,0.001-15.981H160.841 c-4.832,0-9.639-0.775-14.224-2.296c-18.073-5.982-31.152-23.028-31.152-43.08V144.843c0-20.048,13.074-37.09,31.14-43.076 c4.574-1.513,9.417-2.3,14.236-2.3H327.93c4.818,0,9.662,0.788,14.236,2.3c18.066,5.987,31.14,23.028,31.14,43.076V367.156z M389.287,255.582c4.276,1.983,7.248,6.316,7.248,11.33v28.535c0,5.014-2.973,9.347-7.248,11.329V255.582z"/> </g> </g> </g>
</svg>