<!DOCTYPE svg PUBLIC "-//W3C//DTD SVG 1.1//EN" "http://www.w3.org/Graphics/SVG/1.1/DTD/svg11.dtd">

<!-- Uploaded to: SVG Repo, www.svgrepo.com, Transformed by: SVG Repo Mixer Tools -->
<svg fill="#4b4b4b" height="80px" width="80px" version="1.1" id="Layer_1" xmlns="http://www.w3.org/2000/svg" xmlns:xlink="http://www.w3.org/1999/xlink" viewBox="0 0 511.954 511.954" xml:space="preserve" stroke="#4b4b4b" stroke-width="0.0051195400000000005">

<g id="SVGRepo_bgCarrier" stroke-width="0"/>

<g id="SVGRepo_tracerCarrier" stroke-linecap="round" stroke-linejoin="round"/>

<g id="SVGRepo_iconCarrier"> <g> <g> <g> <path d="M119.47,232.969c-7.996,0-18.389,3.533-25.6,9.566c-7.211-6.033-17.604-9.566-25.6-9.566 c-4.71,0-8.533,3.814-8.533,8.533c0,4.71,3.823,8.533,8.533,8.533c7.014,0,16.708,5.794,17.067,8.533v0.026 c0.017,4.702,3.831,8.516,8.533,8.516c4.582,0,8.32-3.601,8.525-8.132c0.009-0.137,0.009-0.265,0.009-0.401 c0.375-2.756,10.061-8.542,17.067-8.542c4.71,0,8.533-3.823,8.533-8.533C128.003,236.784,124.18,232.969,119.47,232.969z"/> <path d="M509.244,285.395l-8.371-19.541c-0.12-0.282-0.273-0.542-0.423-0.805c-0.729-1.777-1.701-3.612-2.982-5.47 c-13.005-18.884-50.057-27.588-110.319-25.873l-38.824-18.269l0.325-0.542c2.432-4.045,1.118-9.284-2.918-11.708 c-4.053-2.432-9.284-1.126-11.708,2.918l-1.218,2.029l-19.085-8.981l0.796-1.326c2.432-4.045,1.118-9.284-2.918-11.708 c-4.045-2.432-9.293-1.118-11.708,2.918l-1.688,2.813l-19.085-8.981l1.266-2.109c2.432-4.045,1.118-9.284-2.918-11.708 c-4.053-2.44-9.293-1.118-11.708,2.918l-2.158,3.596l-19.085-8.981l1.736-2.893c2.432-4.045,1.118-9.284-2.918-11.708 c-4.045-2.441-9.293-1.126-11.708,2.918l-2.628,4.38l-23.027-10.835c-3.9-1.835-8.55-0.478-10.854,3.166 c-2.321,3.669-57.967,89.344-160.751,29.474c-1.019-0.595-2.135-0.947-3.274-1.084c-6.542-1.211-14.023-5.898-14.023-15.305 c0-4.71-3.814-8.533-8.533-8.533c-4.71,0-8.533,3.823-8.533,8.533c0,13.299,8.006,24.638,20.255,29.792 c-7.156,37.979-17.799,92.89-19.811,98.938C0.16,294.279,0,295.185,0,296.13v50.901c0,4.642,3.712,8.431,8.346,8.533 c2.065,0.043,207.317,4.548,339.072,8.533c4.984,0.145,9.813,0.222,14.524,0.222c73.114,0,113.399-17.545,134.579-32.785 C510.37,321.568,515.669,302.76,509.244,285.395z M483.132,268.854c2.185,2.961,2.321,5.547,2.185,6.886 c-11.24,10.688-48.7,17-99.864,20.203l7.214-45.295C460.942,249.323,478.681,262.843,483.132,268.854z M36.284,201.568 c82.85,42.044,143.889-0.589,168.986-34.594l14.904,7.014l-14.149,23.582c-2.432,4.045-1.118,9.284,2.918,11.708 c1.374,0.828,2.893,1.22,4.386,1.22c2.901,0,5.726-1.476,7.322-4.139l15.041-25.068l19.085,8.982l-14.618,24.364 c-2.432,4.045-1.118,9.284,2.918,11.708c1.374,0.828,2.893,1.22,4.386,1.22c2.901,0,5.726-1.476,7.322-4.139l15.51-25.85 l19.085,8.982l-15.088,25.146c-2.432,4.045-1.118,9.284,2.918,11.708c1.374,0.828,2.893,1.22,4.386,1.22 c2.901,0,5.726-1.476,7.322-4.139l15.979-26.632l19.085,8.982l-15.557,25.928c-2.432,4.045-1.118,9.284,2.918,11.708 c1.374,0.828,2.893,1.22,4.386,1.22c2.901,0,5.726-1.476,7.322-4.139l16.449-27.414l36.43,17.145l-7.903,49.601 c-100.484,4.708-243.581-0.849-348.842-8.522C23.748,267.531,32.196,223.243,36.284,201.568z M486.554,317.685 c-20.403,14.677-61.107,31.642-138.615,29.355c-116.676-3.524-290.927-7.467-330.872-8.354v-33.364 c38.845,2.812,155.755,10.568,265.225,10.568c93.484,0,181.524-5.665,210.802-24.88l0.304,0.708 C497.016,301.506,494.2,312.181,486.554,317.685z"/> </g> </g> </g> </g>

</svg>